#!OML:ASF F:\VICON\USERDATA\INSTALL\rory3\rory3.ASF
:FULLY-SPECIFIED
:DEGREES
79
root 0.47852 18.06 -16.0668 -2.9983 -2.60817 -6.0172
lowerback 11.5805 0.384728 4.42661
upperback -0.187242 1.2684 2.28422
thorax -6.66723 0.511036 -0.303201
lowerneck -15.9747 -3.24904 -2.11966
upperneck 23.4893 -4.01022 0.0216609
head 10.176 -2.03829 -0.174015
rclavicle 1.78005e-014 3.08116e-015
rhumerus -27.5486 -17.6941 -79.0468
rradius 24.7623
rwrist 2.70737
rhand -14.4522 10.6248
rfingers 7.12502
rthumb 11.6931 -19.0289
lclavicle 1.78005e-014 3.08116e-015
lhumerus -33.8937 5.42728 82.0919
lradius 25.7488
lwrist 4.15573
lhand -26.413 21.787
lfingers 7.12502
lthumb 0.146815 51.7667
rfemur -7.32519 7.31534 32.7263
rtibia 30.0745
rfoot -15.5946 -7.16194
rtoes 2.97583
lfemur -24.8255 2.3188 -13.6496
ltibia 61.7638
lfoot -6.54248 -1.62166
ltoes -5.38699
80
root 0.473268 18.0442 -15.9171 -2.94146 -2.8048 -6.13631
lowerback 11.8666 0.467315 4.47128
upperback -0.275945 1.40961 2.31892
thorax -6.91872 0.57329 -0.319051
lowerneck -16.0363 -3.23047 -2.23863
upperneck 23.4539 -3.94445 0.00471547
head 10.1769 -2.02025 -0.152054
rclavicle -8.64092e-015 -8.94531e-015
rhumerus -27.1421 -16.5584 -79.5067
rradius 25.3595
rwrist 2.13656
rhand -15.4817 14.1222
rfingers 7.12502
rthumb 10.7002 -15.5853
lclavicle -8.64092e-015 -8.94531e-015
lhumerus -34.4112 5.61937 82.1222
lradius 25.9461
lwrist 4.29061
lhand -26.2782 20.1117
lfingers 7.12502
lthumb 0.277022 50.0913
rfemur -6.83213 7.62894 32.9753
rtibia 30.1077
rfoot -16.0072 -7.31968
rtoes 3.51716
lfemur -25.5678 2.14684 -13.4884
ltibia 60.3024
lfoot -6.93925 -0.946944
ltoes -4.22491
81
root 0.468659 18.0381 -15.7619 -2.84658 -2.88529 -6.31566
lowerback 12.0775 0.577449 4.72513
upperback -0.411991 1.60639 2.23126
thorax -7.16764 0.651788 -0.591856
lowerneck -15.7693 -3.22573 -1.97932
upperneck 23.1628 -3.99027 -0.0748938
head 10.0136 -2.02933 -0.22102
rclavicle 1.05666e-014 1.10822e-014
rhumerus -26.917 -15.5228 -80.0281
rradius 25.9553
rwrist 1.80052
rhand -17.6332 19.7011
rfingers 7.12502
rthumb 8.62428 -10.1027
lclavicle 1.05666e-014 1.10822e-014
lhumerus -34.7366 5.64133 82.0126
lradius 25.7609
lwrist 4.16698
lhand -26.333 20.638
lfingers 7.12502
lthumb 0.22408 50.6177
rfemur -6.32108 7.74805 33.2676
rtibia 30.0202
rfoot -16.5111 -7.50405
rtoes 4.04348
lfemur -26.2276 1.93555 -13.2578
ltibia 58.6629
lfoot -7.2156 -0.336972
ltoes -3.456
82
root 0.465835 18.0266 -15.607 -2.8043 -2.8491 -6.49446
lowerback 12.1615 0.639558 5.02157
upperback -0.410693 1.7298 2.13067
thorax -7.19735 0.698185 -0.887941
lowerneck -15.7124 -3.24562 -1.78316
upperneck 22.9699 -4.08109 -0.0279165
head 9.93073 -2.04905 -0.245857
rclavicle 6.00819e-015 2.91841e-014
rhumerus -26.5171 -14.8968 -80.482
rradius 26.5648
rwrist 1.46613
rhand -18.7789 21.5259
rfingers 7.12502
rthumb 7.51857 -8.32051
lclavicle 6.00819e-015 2.91841e-014
lhumerus -34.7585 5.70924 81.893
lradius 25.4458
lwrist 3.99175
lhand -26.3871 21.8462
lfingers 7.12502
lthumb 0.171862 51.8259
rfemur -5.72091 7.85582 33.5724
rtibia 29.8567
rfoot -17.0021 -7.73049
rtoes 4.78697
lfemur -26.7017 1.64236 -13.0428
ltibia 56.8083
lfoot -7.39694 0.354644
ltoes -2.05776
83
root 0.465834 18.0163 -15.4472 -2.71481 -2.77706 -6.61983
lowerback 12.0638 0.698967 5.2998
upperback -0.345876 1.82995 2.01832
thorax -7.05562 0.738899 -1.17839
lowerneck -15.7157 -3.28546 -1.66671
upperneck 22.7822 -4.17659 0.019108
head 9.86342 -2.07784 -0.259163
rclavicle 1.17182e-014 2.03754e-015
rhumerus -25.924 -14.6304 -80.8388
rradius 27.0187
rwrist 1.09791
rhand -18.9905 21.4443
rfingers 7.12502
rthumb 7.31428 -8.40933
lclavicle 1.17182e-014 2.03754e-015
lhumerus -34.8166 5.6575 81.8249
lradius 25.443
lwrist 3.87839
lhand -26.2246 23.0422
lfingers 7.12502
lthumb 0.328773 53.0217
rfemur -5.09489 7.79436 33.7717
rtibia 29.5988
rfoot -17.2936 -7.85373
rtoes 4.44878
lfemur -27.1818 1.23107 -12.8968
ltibia 54.7978
lfoot -7.47147 1.32983
ltoes 1.97547
84
root 0.46382 18.0125 -15.2864 -2.68488 -2.65431 -6.50973
lowerback 12.0789 0.717345 5.22087
upperback -0.253967 1.83405 1.9422
thorax -6.9649 0.745857 -1.21516
lowerneck -15.8188 -3.32305 -1.63204
upperneck 22.5868 -4.20809 -0.0801122
head 9.81034 -2.10088 -0.303124
rclavicle -1.4276e-014 -1.39398e-014
rhumerus -25.1699 -14.084 -81.1027
rradius 27.2924
rwrist 0.67742
rhand -18.7532 22.0255
rfingers 7.12502
rthumb 7.54334 -7.81999
lclavicle -1.4276e-014 -1.39398e-014
lhumerus -34.9415 5.89646 81.7929
lradius 25.5039
lwrist 3.75463
lhand -26.2988 24.2664
lfingers 7.12502
lthumb 0.257116 54.246
rfemur -4.40136 7.73765 33.7328
rtibia 29.3495
rfoot -17.6023 -8.12255
rtoes 4.361
lfemur -27.6068 0.651099 -12.9755
ltibia 52.5303
lfoot -7.52594 2.19119
ltoes -0.2445
85
root 0.460895 17.9996 -15.127 -2.56974 -2.70807 -6.52249
lowerback 12.0957 0.771486 5.10549
upperback -0.212483 1.89334 2.00728
thorax -6.93233 0.78138 -1.09211
lowerneck -16.0024 -3.3209 -1.67193
upperneck 22.436 -4.13925 -0.274817
head 9.78729 -2.09441 -0.356759
rclavicle -1.18106e-015 -1.01877e-014
rhumerus -24.6541 -13.3246 -81.2442
rradius 27.7827
rwrist 0.133382
rhand -18.5019 22.1673
rfingers 7.12502
rthumb 7.78597 -7.66938
lclavicle -1.18106e-015 -1.01877e-014
lhumerus -34.9493 6.37799 81.806
lradius 25.23
lwrist 3.4888
lhand -26.2849 23.7682
lfingers 7.12502
lthumb 0.270553 53.7478
rfemur -3.82237 7.80778 33.8358
rtibia 29.1348
rfoot -17.9393 -8.39274
rtoes 4.07168
lfemur -27.8478 0.339809 -12.8918
ltibia 50.2898
lfoot -7.84498 2.78274
ltoes -2.10484
86
root 0.462123 17.9815 -14.9607 -2.33178 -2.84839 -6.62542
lowerback 11.9728 0.825345 5.20944
upperback -0.353041 1.97849 2.01345
thorax -7.00568 0.815684 -1.15701
lowerneck -15.7561 -3.20906 -1.79732
upperneck 22.3883 -3.97486 -0.188367
head 9.72801 -2.02006 -0.279308
rclavicle -1.29792e-014 -4.16951e-014
rhumerus -24.5094 -12.4988 -81.4207
rradius 28.2949
rwrist -0.372895
rhand -18.5505 21.9269
rfingers 7.12502
rthumb 7.73905 -7.91144
lclavicle -1.29792e-014 -4.16951e-014
lhumerus -35.2675 6.91098 81.6065
lradius 24.8733
lwrist 3.0544
lhand -26.2412 22.3311
lfingers 7.12502
lthumb 0.312805 52.3107
rfemur -3.32338 7.83659 33.9982
rtibia 28.889
rfoot -18.2463 -8.56381
rtoes 3.66365
lfemur -28.1728 0.0129441 -12.6609
ltibia 47.7878
lfoot -7.7211 3.3763
ltoes -1.59879
87
root 0.460274 17.9642 -14.7985 -2.19256 -2.86276 -6.75247
lowerback 11.8567 0.883728 5.38244
upperback -0.382818 2.07076 1.97556
thorax -6.95953 0.854578 -1.30747
lowerneck -15.5658 -3.2219 -1.90741
upperneck 22.3108 -3.99814 -0.0611587
head 9.67065 -2.02637 -0.215643
rclavicle -1.03725e-014 -1.43622e-014
rhumerus -24.1743 -11.8645 -81.6344
rradius 28.7854
rwrist -0.74375
rhand -18.7931 21.8487
rfingers 7.12502
rthumb 7.50482 -7.99822
lclavicle -1.03725e-014 -1.43622e-014
lhumerus -35.5048 7.18323 81.4481
lradius 24.6548
lwrist 2.98154
lhand -26.4214 22.7304
lfingers 7.12502
lthumb 0.138696 52.7101
rfemur -2.62895 7.73169 34.177
rtibia 28.3161
rfoot -18.3965 -8.56041
rtoes 3.64877
lfemur -28.6023 -0.277395 -12.433
ltibia 45.6765
lfoot -7.62879 4.15332
ltoes -1.85502
88
root 0.461718 17.9523 -14.6335 -2.03256 -2.77129 -6.82401
lowerback 11.6051 0.962265 5.48624
upperback -0.325212 2.16537 1.94139
thorax -6.7447 0.903228 -1.41094
lowerneck -15.6852 -3.3487 -1.87098
upperneck 22.2899 -4.15956 -0.150064
head 9.68417 -2.10758 -0.275299
rclavicle -1.85367e-014 -1.90336e-014
rhumerus -23.8103 -11.4758 -81.7626
rradius 29.4047
rwrist -1.12254
rhand -18.9017 21.865
rfingers 7.12502
rthumb 7.4 -7.98556
lclavicle -1.85367e-014 -1.90336e-014
lhumerus -35.5421 7.26077 81.4509
lradius 24.482
lwrist 3.00158
lhand -26.1008 24.5799
lfingers 7.12502
lthumb 0.448353 54.5591
rfemur -1.91661 7.53244 34.258
rtibia 27.7176
rfoot -18.5565 -8.53303
rtoes 3.14745
lfemur -29.0047 -0.781465 -12.2431
ltibia 43.1085
lfoot -6.90846 4.99543
ltoes -4.01948
